<svg version="1.1" xmlns="http://www.w3.org/2000/svg" xmlns:xlink="http://www.w3.org/1999/xlink" x="0px" y="0px" viewBox="0 0 120 56.4" style="enable-background:new 0 0 120 56.4;" xml:space="preserve" width="120"  height="56.4" >
<g>
<path class="fill__c" d="M45.7,23.2h-4c-2.4,0-4.7,0-7.1,0.1c-2.4,0-4.7,0.1-7.1,0.1c-2.4,0-4.8,0-7.3-0.1c-3.6,0-7.3-0.1-10.9,0
                                c-1.3,0-2,0.2-2,1.1c0.3,10.8,9.4,16.3,20.2,16.2c10.7,0.1,19.9-5.4,20.1-16.2C47.8,23.5,47.1,23.2,45.7,23.2z M14.4,25.5
                                c-0.1,0.4-0.3,0.8-0.6,1.1c-0.3,0.3-0.7,0.5-1.1,0.6c-0.6,0-1.1-0.5-1.7-1.7c0.4-0.1,0.8-0.2,1.2-0.3c0.2,0,0.4-0.1,0.6-0.1
                                c0.6-0.1,1.1-0.2,1.7-0.3l0.3,0L14.4,25.5z M19.4,25.5c-0.1,0.4-0.3,0.8-0.6,1.1c-0.3,0.3-0.7,0.5-1.1,0.6c-0.6,0-1.2-0.5-1.7-1.7
                                l-0.4-0.8c1.3-0.1,2.8-0.2,4.4-0.3L19.4,25.5z M30,24.1l-0.6,1.4c-0.1,0.4-0.3,0.8-0.6,1.1c-0.3,0.3-0.7,0.5-1.1,0.6
                                c-0.6,0-1.1-0.5-1.7-1.7l-0.6-1.4H30z M20.9,25.5L20.9,25.5l-0.5-1.1c0.7,0,1.5,0,2.2-0.1c0.8,0,1.6-0.1,2.5-0.1l-0.6,1.4
                                c-0.1,0.4-0.3,0.8-0.6,1.1c-0.3,0.3-0.7,0.5-1.1,0.6C22,27.1,21.5,26.6,20.9,25.5z M33,34.5c-0.2,1.2-0.9,2.4-1.9,3.2
                                c-1,0.8-2.2,1.2-3.4,1.2l0,0c-1.3,0.1-2.5-0.3-3.5-1.1c-1-0.8-1.7-1.9-2-3.2c-0.3-1.3-0.1-2.6,0.5-3.7c0.6-1.1,1.6-2,2.7-2.5
                                c0.3-0.2,0.6-0.2,0.9-0.2c0.3,0,0.6,0.1,0.8,0.3c0.2,0.2,0.4,0.5,0.5,0.8c0.1,0.3,0.1,0.6,0,0.9c-0.2,0.5-0.5,1-1,1.4
                                c-0.1,0.2-0.1,0.4-0.1,0.6c0,0.4,0.1,0.7,0.4,1c0.2,0.3,0.6,0.4,0.9,0.4c0.4,0,0.7-0.1,0.9-0.4c0.2-0.3,0.4-0.6,0.4-1
                                c0-0.2,0-0.4-0.1-0.6c-0.4-0.4-0.7-0.8-1-1.4c-0.1-0.2-0.1-0.5-0.1-0.7c0-0.2,0.1-0.5,0.2-0.7c0.1-0.2,0.3-0.4,0.5-0.5
                                c0.2-0.1,0.4-0.2,0.6-0.2c0.2,0,0.4,0.1,0.5,0.1c1.1,0.5,2.1,1.4,2.7,2.5C33,32,33.2,33.3,33,34.5z M34.3,25.5
                                c0,0.5-0.2,0.9-0.5,1.3c-0.3,0.3-0.8,0.5-1.2,0.5c-0.5,0-0.9-0.2-1.2-0.5c-0.3-0.3-0.5-0.8-0.5-1.3l-0.6-1.4c1.1,0,2.1,0,3.1,0.1
                                c0.5,0,1.1,0,1.6,0.1L34.3,25.5z M39.4,25.5c-0.6,1.1-1.1,1.7-1.7,1.7c-0.4-0.1-0.8-0.3-1.1-0.6c-0.3-0.3-0.5-0.7-0.6-1.1
                                l-0.6-1.1c1.6,0.1,3.1,0.2,4.4,0.3L39.4,25.5z M42.7,27.1L42.7,27.1c-0.4,0-0.8-0.2-1.1-0.5c-0.3-0.3-0.5-0.7-0.6-1.1l-0.3-0.7
                                c1.3,0.1,2.6,0.4,3.8,0.7C43.8,26.6,43.2,27.2,42.7,27.1z" fill="#ffbf00"></path>
<path class="fill__c" d="M42.2,20.6c0.6,0,1.2-0.2,1.6-0.7c0.4-0.4,0.7-1,0.7-1.6c0-0.3-0.1-0.6-0.2-0.9c-0.1-0.3-0.3-0.5-0.5-0.8
                                c-0.2-0.2-0.5-0.4-0.7-0.5c-0.3-0.1-0.6-0.2-0.9-0.2c-0.6,0-1.2,0.3-1.6,0.7c-0.4,0.4-0.7,1-0.7,1.6c0,0.6,0.2,1.2,0.7,1.6
                                C41,20.4,41.6,20.6,42.2,20.6z" fill="#ffbf00"></path>
<path class="fill__c" d="M13.1,20.6c0.6,0,1.2-0.2,1.6-0.7c0.4-0.4,0.7-1,0.7-1.6c0-0.3-0.1-0.6-0.2-0.9c-0.1-0.3-0.3-0.5-0.5-0.8
                                c-0.2-0.2-0.5-0.4-0.7-0.5C13.6,16.1,13.3,16,13,16c-0.6,0-1.2,0.3-1.6,0.7c-0.4,0.4-0.7,1-0.7,1.6c0,0.6,0.2,1.2,0.7,1.6
                                C11.9,20.4,12.5,20.6,13.1,20.6z" fill="#ffbf00"></path>
<path class="fill__c" d="M50,5.3C48,3.2,45.2,2,42.2,2H13.1c-2.9,0-5.8,1.2-7.8,3.3s-3.2,5-3.3,8v29.8c0,3,1.2,5.9,3.3,8
                                c2.1,2.1,4.9,3.3,7.8,3.3h29.2c2.9,0,5.7-1.2,7.8-3.3c2.1-2.1,3.2-5,3.3-8V13.3C53.3,10.3,52.1,7.4,50,5.3z M48.5,43.7
                                c-0.6,1.4-1.4,2.6-2.4,3.6c-1,1.1-2.3,1.9-3.6,2.5c-1.3,0.6-2.8,0.9-4.3,0.9H16.9c-2.9,0-5.8-1.2-7.9-3.3c-2.1-2.1-3.3-5-3.3-8
                                V16.1c0,0,0-4.1,2.7-5.1c2.7-1,6.2,1.3,10.2,4.3c0.4,0.3,0.8,0.6,1.2,1c3.6,2.9,7.6,6.2,14.4-0.6c5.6-5.7,8.7-6.8,10.5-6.8
                                c0.5,0,0.9,0.1,1.3,0.2c1.1,0.4,3.2,1.9,3.2,7v23.1l0.1,0.1C49.4,40.8,49.1,42.3,48.5,43.7z" fill="#ffbf00"></path>
</g>
</svg>