<svg version="1.1" xmlns="http://www.w3.org/2000/svg" xmlns:xlink="http://www.w3.org/1999/xlink" x="0px" y="0px" viewBox="0 0 120 56.4" style="enable-background:new 0 0 120 56.4;" xml:space="preserve" width="120"  height="56.4" >
<g>
<path class="fill__a" d="M91,16c0.6,0.5,1.4,0.9,2.2,1.1c1.8,0.5,3.8,0.5,5.6,0c0.8-0.2,1.5-0.6,2.2-1.1c0.6-0.5,1.1-1.1,1.4-1.8
                                c0.4-0.8,0.6-1.7,0.6-2.5V7.9c0-0.9-0.2-1.7-0.6-2.5c-0.3-0.7-0.8-1.3-1.4-1.9c-0.6-0.5-1.4-0.9-2.2-1.1c-1.8-0.5-3.8-0.5-5.6,0
                                C92.4,2.6,91.6,3,91,3.5c-0.6,0.5-1.1,1.1-1.4,1.9C89.2,6.1,89,7,89,7.9v3.8c0,0.9,0.2,1.7,0.6,2.5C89.9,14.9,90.4,15.5,91,16z
                                M94.4,7.9c0-0.5,0.1-1,0.5-1.4c0.3-0.3,0.7-0.4,1.1-0.4c0.4,0,0.8,0.1,1.1,0.4c0.3,0.4,0.5,0.9,0.5,1.4v3.6c0,0.5-0.1,1-0.5,1.4
                                c-0.3,0.3-0.7,0.4-1.1,0.4c-0.4,0-0.8-0.1-1.1-0.4c-0.3-0.4-0.5-0.9-0.5-1.4C94.4,10.3,94.4,9.1,94.4,7.9z" fill="#ffffff"></path>
<path class="fill__a" d="M61.5,16.1c0.7,0.5,1.4,0.8,2.1,1c1,0.3,2,0.4,3,0.4c0.9,0,1.9-0.1,2.8-0.4c0.8-0.2,1.5-0.5,2.2-1
                                c0.6-0.4,1.1-1,1.5-1.6c0.4-0.6,0.5-1.4,0.5-2.1c0-0.6-0.1-1.3-0.3-1.8c-0.2-0.5-0.6-1-1-1.4c-0.5-0.4-1.1-0.7-1.8-0.9
                                c-0.9-0.3-1.8-0.5-2.7-0.6c-0.5-0.1-0.9-0.1-1.2-0.2c-0.2,0-0.5-0.1-0.7-0.2c-0.1-0.1-0.3-0.1-0.4-0.2c-0.1-0.1-0.1-0.2-0.1-0.3
                                c0-0.1,0-0.2,0.1-0.3c0-0.1,0.1-0.2,0.2-0.2C65.9,6.1,66.2,6,66.5,6c0.2,0,0.5,0,0.7,0.1c0.2,0.1,0.3,0.2,0.4,0.3
                                c0.1,0.1,0.2,0.3,0.4,0.4c0.1,0.1,0.3,0.1,0.5,0.1h4.2c0.1,0,0.1,0,0.2,0c0.1,0,0.1-0.1,0.1-0.1c0,0,0.1-0.1,0.1-0.1
                                c0-0.1,0-0.1,0-0.2c0-0.5-0.2-1-0.5-1.5c-0.3-0.6-0.8-1.1-1.3-1.4C70.7,3,70,2.7,69.2,2.4C68.3,2.1,67.4,2,66.4,2
                                c-0.9,0-1.8,0.2-2.6,0.5c-0.7,0.2-1.4,0.6-2,1c-0.6,0.4-1,0.9-1.3,1.6C60.2,5.6,60,6.3,60,7c0,0.7,0.1,1.3,0.4,2
                                c0.3,0.5,0.6,1,1.1,1.4c0.5,0.4,1.1,0.7,1.7,0.9c0.7,0.3,1.5,0.4,2.3,0.5c0.7,0.1,1.4,0.2,2.1,0.4c0.1,0,0.3,0.1,0.4,0.2
                                c0.1,0.1,0.2,0.2,0.2,0.4c0,0.1-0.1,0.2-0.1,0.3c-0.1,0.1-0.2,0.2-0.3,0.2c-0.7,0.2-1.4,0.2-2.1,0c-0.2-0.1-0.4-0.2-0.6-0.4
                                c-0.1-0.1-0.3-0.2-0.4-0.3c-0.2-0.1-0.3-0.1-0.5-0.1h-4c-0.1,0-0.2,0-0.3,0.1c0,0-0.1,0.1-0.1,0.1c0,0.1,0,0.1,0,0.2
                                c0,0.6,0.2,1.2,0.5,1.7C60.4,15.2,60.9,15.7,61.5,16.1z" fill="#ffffff"></path>
<path class="fill__a" d="M119.6,47.3c-0.2-0.6-0.6-1.1-1.1-1.5c-0.6-0.5-1.3-0.8-2-1c-1-0.3-1.9-0.5-2.9-0.6c-0.6-0.1-1-0.1-1.3-0.2
                                c-0.3-0.1-0.5-0.1-0.8-0.2c-0.1-0.1-0.3-0.2-0.4-0.3c-0.1-0.1-0.1-0.2-0.1-0.3c0-0.1,0-0.2,0.1-0.3c0-0.1,0.1-0.2,0.2-0.2
                                c0.2-0.2,0.5-0.3,0.9-0.3c0.3,0,0.5,0,0.8,0.1c0.2,0.1,0.3,0.2,0.4,0.3c0.1,0.1,0.3,0.3,0.4,0.4c0.2,0.1,0.3,0.1,0.5,0.1h4.6
                                c0.1,0,0.1,0,0.2,0c0.1,0,0.1-0.1,0.2-0.1c0,0,0.1-0.1,0.1-0.2c0-0.1,0-0.1,0-0.2c0-0.6-0.2-1.1-0.5-1.6c-0.3-0.6-0.8-1.1-1.3-1.6
                                c-0.7-0.5-1.4-0.9-2.2-1.2c-1-0.3-2-0.5-3-0.5c-0.9,0-1.9,0.2-2.8,0.4c-0.8,0.2-1.5,0.6-2.2,1.1c-0.6,0.4-1.1,1-1.4,1.7
                                c-0.3,0.7-0.5,1.4-0.5,2.1c0,0.7,0.1,1.5,0.4,2.1c0.3,0.6,0.7,1.1,1.2,1.5c0.6,0.4,1.2,0.8,1.9,1c0.8,0.3,1.6,0.5,2.5,0.6
                                c0.8,0.1,1.6,0.2,2.3,0.4c0.2,0,0.3,0.1,0.4,0.2c0.1,0.1,0.2,0.3,0.2,0.4c0,0.1-0.1,0.3-0.2,0.4c-0.1,0.1-0.2,0.2-0.3,0.2
                                c-0.7,0.3-1.5,0.3-2.3,0c-0.3-0.1-0.5-0.3-0.7-0.5c-0.1-0.1-0.3-0.3-0.4-0.4c-0.2-0.1-0.4-0.1-0.5-0.1h-4.3c-0.1,0-0.1,0-0.2,0
                                c-0.1,0-0.1,0.1-0.2,0.1c0,0-0.1,0.1-0.1,0.2c0,0.1,0,0.1,0,0.2c0,0.7,0.2,1.3,0.5,1.9c0.3,0.6,0.8,1.2,1.3,1.6
                                c0.7,0.5,1.5,0.9,2.3,1.1c1.1,0.3,2.2,0.4,3.3,0.4c1,0,2-0.1,3-0.4c0.9-0.2,1.7-0.6,2.4-1.1c0.7-0.4,1.2-1,1.6-1.7
                                c0.4-0.7,0.6-1.5,0.6-2.3C120,48.6,119.9,47.9,119.6,47.3z" fill="#ffffff"></path>
<path class="fill__a" d="M75.2,17.4H79c0.2,0,0.3-0.1,0.4-0.2c0.1-0.1,0.2-0.3,0.2-0.4v-5.4l3.6,5.4c0.1,0.1,0.2,0.2,0.3,0.3
                                c0.2,0.1,0.4,0.2,0.6,0.2h3.3c0.2,0,0.3-0.1,0.4-0.2c0.1-0.1,0.2-0.3,0.2-0.4V2.8c0-0.2-0.1-0.3-0.2-0.4c-0.1-0.1-0.3-0.2-0.4-0.2
                                h-3.8c-0.1,0-0.2,0-0.3,0c-0.1,0-0.2,0.1-0.2,0.1C83,2.5,83,2.6,82.9,2.7c0,0.1,0,0.2,0,0.3v5.9l-3.6-5.9
                                c-0.1-0.1-0.2-0.2-0.3-0.3c-0.2-0.1-0.4-0.2-0.6-0.2h-3.3c-0.2,0-0.3,0.1-0.4,0.2c-0.1,0.1-0.2,0.3-0.2,0.4v13.9
                                c0,0.2,0.1,0.3,0.2,0.4C74.9,17.3,75,17.4,75.2,17.4z" fill="#ffffff"></path>
<path class="fill__a" d="M74.8,36.5c0.1,0.1,0.3,0.2,0.5,0.2h4.6c0.2,0,0.4-0.1,0.5-0.2c0.1-0.1,0.2-0.3,0.2-0.5V19.4
                                c0-0.2-0.1-0.4-0.2-0.5c-0.1-0.1-0.3-0.2-0.5-0.2h-4c-0.1,0-0.3,0-0.4,0.1c-0.1,0-0.3,0.1-0.3,0.2c-0.1,0.1-0.2,0.3-0.3,0.4
                                l-4.5,6.2l-4.5-6.2c-0.1-0.1-0.2-0.3-0.3-0.4c-0.1-0.1-0.2-0.2-0.3-0.2c-0.1,0-0.3-0.1-0.4-0.1h-4c-0.2,0-0.4,0.1-0.5,0.2
                                C60.1,19,60,19.2,60,19.4v16.7c0,0.2,0.1,0.4,0.2,0.5c0.1,0.1,0.3,0.2,0.5,0.2h4.6c0.2,0,0.4-0.1,0.5-0.2c0.1-0.1,0.2-0.3,0.2-0.5
                                V29l1.7,2.8c0.1,0.2,0.2,0.3,0.3,0.4c0.1,0.1,0.2,0.1,0.3,0.2c0.1,0,0.2,0.1,0.3,0H72c0.1,0,0.2,0,0.3,0c0.1,0,0.2-0.1,0.3-0.2
                                c0.1-0.1,0.2-0.3,0.3-0.4l1.7-2.8v7.1C74.6,36.2,74.7,36.4,74.8,36.5z" fill="#ffffff"></path>
<path class="fill__a" d="M104.6,17.2h3.3c0.1,0,0.2,0,0.3,0c0.1,0,0.2-0.1,0.3-0.2c0.1-0.1,0.2-0.2,0.3-0.3l3.1-5.2l2.9,5.2
                                c0.1,0.1,0.2,0.2,0.3,0.3c0.1,0.1,0.2,0.1,0.3,0.2c0.1,0,0.2,0.1,0.3,0h3.3c0.2,0,0.3-0.1,0.4-0.2c0.1-0.1,0.2-0.3,0.2-0.4V2.8
                                c0-0.2-0.1-0.3-0.2-0.4c-0.1-0.1-0.3-0.2-0.4-0.2h-3.8c-0.2,0-0.3,0.1-0.4,0.2c-0.1,0.1-0.2,0.3-0.2,0.4v5.9l-1.3-2.3
                                c-0.1-0.1-0.2-0.2-0.3-0.4c-0.1-0.1-0.1-0.1-0.2-0.1c-0.1,0-0.2,0-0.3,0h-1.5c-0.1,0-0.2,0-0.3,0c-0.1,0-0.2,0.1-0.2,0.1
                                c-0.1,0.1-0.2,0.2-0.3,0.4L109,8.7V2.8c0-0.2-0.1-0.3-0.2-0.4c-0.1-0.1-0.3-0.2-0.4-0.2h-3.8c-0.2,0-0.3,0.1-0.4,0.2
                                c-0.1,0.1-0.2,0.3-0.2,0.4v13.9c0,0.2,0.1,0.3,0.2,0.4C104.3,17.2,104.5,17.2,104.6,17.2z" fill="#ffffff"></path>
<path class="fill__a" d="M94.6,36.1c0.1,0.2,0.2,0.3,0.3,0.4c0.1,0.1,0.2,0.1,0.3,0.2c0.1,0,0.2,0,0.4,0h4.7c0.1,0,0.3-0.1,0.4-0.2
                                c0.1-0.1,0.2-0.3,0.2-0.4c0-0.1,0-0.1,0-0.2l-5.6-16.6c-0.1-0.2-0.2-0.4-0.4-0.6c-0.1-0.1-0.2-0.2-0.4-0.2c-0.1,0-0.3-0.1-0.4-0.1
                                l0,0.1h-5.5c-0.1,0-0.3,0-0.4,0.1c-0.1,0-0.3,0.1-0.4,0.2c-0.2,0.2-0.3,0.4-0.4,0.6L81.8,36c0,0.1,0,0.1,0,0.2
                                c0,0.2,0.1,0.3,0.2,0.4c0.1,0.1,0.2,0.2,0.4,0.2H87c0.1,0,0.3,0,0.4,0c0.1,0,0.2-0.1,0.3-0.2c0.1-0.1,0.2-0.3,0.3-0.4l0.6-1.7H94
                                L94.6,36.1z M89.9,29.3l1.4-4.8l1.4,4.8H89.9z" fill="#ffffff"></path>
<path class="fill__a" d="M119.1,18.6L119.1,18.6l-4.6,0.1c-0.2,0-0.4,0.1-0.5,0.2c-0.1,0.1-0.2,0.3-0.2,0.5v7.1l-6.1-7.2
                                c-0.1-0.1-0.2-0.3-0.3-0.4c-0.2-0.2-0.5-0.3-0.7-0.2h-4c-0.2,0-0.4,0.1-0.5,0.2c-0.1,0.1-0.2,0.3-0.2,0.5V36
                                c0,0.2,0.1,0.4,0.2,0.5c0.1,0.1,0.3,0.2,0.5,0.2h4.6c0.2,0,0.4-0.1,0.5-0.2c0.1-0.1,0.2-0.3,0.2-0.5v-6.5l6.1,6.6
                                c0.1,0.1,0.2,0.3,0.3,0.4c0.2,0.2,0.5,0.3,0.7,0.2h4c0.2,0,0.4-0.1,0.5-0.2c0.1-0.1,0.2-0.3,0.2-0.5V19.3c0-0.2-0.1-0.4-0.2-0.5
                                C119.4,18.7,119.3,18.6,119.1,18.6z" fill="#ffffff"></path>
<path class="fill__a" d="M71,49.8c0-0.1-0.1-0.1-0.1-0.2c-0.1-0.1-0.1-0.1-0.2-0.1c-0.1,0-0.2,0-0.2,0h-4.7V38.8
                                c0-0.2-0.1-0.3-0.2-0.5c-0.1-0.1-0.3-0.2-0.4-0.2h-4.6c-0.2,0-0.3,0.1-0.4,0.2c-0.1,0.1-0.2,0.3-0.2,0.5v15.3
                                c0,0.2,0.1,0.3,0.2,0.5c0.1,0.1,0.3,0.2,0.4,0.2h8.5c0.1,0,0.2,0,0.2,0c0.1,0,0.1-0.1,0.2-0.1c0.1-0.1,0.2-0.3,0.3-0.4
                                c0,0,1.3-3.8,1.3-4.1C71.1,49.9,71.1,49.9,71,49.8z" fill="#ffffff"></path>
<path class="fill__a" d="M83,38.4c-0.1-0.1-0.2-0.2-0.3-0.2c-0.1,0-0.3-0.1-0.4-0.1h-5.1c-0.1,0-0.3,0-0.4,0.1c-0.1,0-0.2,0.1-0.3,0.2
                                c-0.1,0.1-0.3,0.3-0.3,0.5l-5.1,15c0,0.1,0,0.1,0,0.2c0,0.1,0.1,0.3,0.1,0.4c0.1,0.1,0.2,0.2,0.4,0.2h4.3c0.1,0,0.2,0,0.3,0
                                c0.1,0,0.2-0.1,0.3-0.2c0.1-0.1,0.2-0.2,0.3-0.4l0.6-1.6h5l0.6,1.6c0.1,0.1,0.1,0.3,0.3,0.4c0.1,0.1,0.2,0.1,0.3,0.2
                                c0.1,0,0.2,0,0.3,0H88c0.1,0,0.3-0.1,0.4-0.2c0.1-0.1,0.1-0.2,0.1-0.4c0-0.1,0-0.1,0-0.2l-5.1-15C83.3,38.8,83.2,38.6,83,38.4z
                                M78.4,47.9l1.3-4.4l1.3,4.4H78.4z" fill="#ffffff"></path>
<path class="fill__a" d="M104,48.3c-0.1-0.3-0.3-0.7-0.5-1c-0.2-0.3-0.4-0.6-0.7-0.8c-0.3-0.2-0.5-0.4-0.8-0.5
                                c0.2-0.1,0.4-0.3,0.6-0.4c0.2-0.2,0.4-0.4,0.6-0.6c0.2-0.3,0.4-0.5,0.5-0.8c0.1-0.3,0.2-0.7,0.2-1c0.1-0.7-0.1-1.4-0.3-2.1
                                c-0.3-0.6-0.7-1.2-1.2-1.7c-1.4-0.9-3.2-1.4-4.9-1.2h-7.7c-0.1,0-0.2,0-0.2,0c-0.1,0-0.1,0.1-0.2,0.1c-0.1,0.1-0.1,0.1-0.1,0.2
                                c0,0.1,0,0.2,0,0.2V54c0,0.1,0,0.2,0,0.2c0,0.1,0.1,0.1,0.1,0.2c0.1,0.1,0.1,0.1,0.2,0.1c0.1,0,0.2,0,0.2,0v0h7.9
                                c1.7,0.1,3.4-0.3,4.8-1.3c0.6-0.5,1-1.1,1.3-1.7c0.3-0.7,0.4-1.4,0.4-2.2C104.2,49,104.2,48.7,104,48.3z M94.9,42.2h1.9
                                c0.1,0,0.3,0,0.4,0.1c0.1,0.1,0.2,0.2,0.3,0.3c0.1,0.2,0.2,0.5,0.2,0.7h0c0,0.3-0.1,0.5-0.3,0.7c-0.1,0.1-0.2,0.2-0.3,0.3
                                c-0.1,0.1-0.3,0.1-0.4,0.1h-1.9V42.2z M97.9,50.2c-0.1,0.1-0.2,0.2-0.4,0.3c-0.1,0.1-0.3,0.1-0.5,0.1h-2.1v-2.3h2.1
                                c0.2,0,0.3,0,0.4,0.1c0.1,0.1,0.3,0.2,0.4,0.3c0.2,0.2,0.3,0.5,0.3,0.8C98.1,49.7,98,50,97.9,50.2z" fill="#ffffff"></path>
</g>
</svg>